<?xml version="1.0" standalone="no"?>
<!DOCTYPE svg PUBLIC "-//W3C//DTD SVG 20010904//EN"
 "http://www.w3.org/TR/2001/REC-SVG-20010904/DTD/svg10.dtd">
<svg version="1.0" xmlns="http://www.w3.org/2000/svg"
 width="512.000000pt" height="512.000000pt" viewBox="0 0 512.000000 512.000000"
 preserveAspectRatio="xMidYMid meet">

<g transform="translate(0.000000,512.000000) scale(0.100000,-0.100000)"
fill="#000000" stroke="none">
<path d="M1423 4492 c-103 -36 -173 -116 -195 -224 l-12 -58 -548 0 c-530 0
-550 -1 -588 -20 -26 -13 -47 -34 -60 -60 -20 -39 -20 -55 -20 -1720 0 -1665
0 -1681 20 -1720 13 -26 34 -47 60 -60 38 -20 57 -20 820 -20 763 0 782 0 820
20 26 13 47 34 60 60 19 37 20 58 20 430 l0 390 385 0 385 0 0 -300 0 -300
-165 0 c-146 0 -170 -2 -205 -20 -45 -23 -80 -80 -80 -130 0 -50 35 -107 80
-130 38 -20 57 -20 970 -20 913 0 932 0 970 20 45 23 80 80 80 130 0 50 -35
107 -80 130 -35 18 -59 20 -205 20 l-165 0 0 300 0 299 563 3 562 3 57 28 c64
32 111 80 142 146 l21 46 0 1275 0 1275 -21 46 c-31 66 -78 114 -142 146 l-57
28 -1710 2 c-1621 2 -1713 2 -1762 -15z m3397 -1482 l0 -1200 -1650 0 -1650 0
0 1200 0 1200 1650 0 1650 0 0 -1200z m-3600 750 l0 -150 -460 0 -460 0 0 150
0 150 460 0 460 0 0 -150z m0 -600 l0 -150 -460 0 -460 0 0 150 0 150 460 0
460 0 0 -150z m0 -918 c0 -515 1 -530 60 -611 38 -51 105 -95 171 -111 l49
-12 0 -299 0 -299 -600 0 -600 0 0 900 0 900 460 0 460 0 0 -468z m2250 -1032
l0 -300 -300 0 -300 0 0 300 0 300 300 0 300 0 0 -300z"/>
<path d="M828 1379 c-43 -22 -78 -81 -78 -129 0 -76 74 -150 150 -150 17 0 49
9 70 20 45 23 80 80 80 130 0 50 -35 107 -80 130 -49 25 -94 25 -142 -1z"/>
</g>
</svg>
